<svg width="16" height="17" viewBox="0 0 16 17" fill="none" xmlns="http://www.w3.org/2000/svg">
<mask id="path-1-inside-1" fill="white">
<path d="M8.64458 0.382259C9.94039 0.609612 11.1601 1.15303 12.1958 1.96438C13.2314 2.77573 14.051 3.82997 14.5818 5.03371C15.1127 6.23745 15.3385 7.55354 15.2393 8.8654C15.14 10.1773 14.7188 11.4444 14.0129 12.5546C13.3069 13.6647 12.3381 14.5837 11.1922 15.23C10.0463 15.8763 8.75865 16.23 7.44338 16.2598C6.12811 16.2897 4.82579 15.9946 3.65177 15.4009C2.47775 14.8072 1.46827 13.9331 0.712757 12.8561L1.94462 11.9919C2.55803 12.8664 3.37764 13.5761 4.33083 14.0581C5.28403 14.5402 6.3414 14.7797 7.40928 14.7555C8.47716 14.7313 9.52259 14.4441 10.453 13.9194C11.3833 13.3946 12.1699 12.6485 12.7431 11.7472C13.3163 10.8458 13.6583 9.817 13.7388 8.75189C13.8194 7.68678 13.6361 6.61823 13.2051 5.6409C12.774 4.66357 12.1086 3.80763 11.2678 3.14888C10.427 2.49014 9.43663 2.04893 8.38454 1.86434L8.64458 0.382259Z"/>
</mask>
<path d="M8.64458 0.382259C9.94039 0.609612 11.1601 1.15303 12.1958 1.96438C13.2314 2.77573 14.051 3.82997 14.5818 5.03371C15.1127 6.23745 15.3385 7.55354 15.2393 8.8654C15.14 10.1773 14.7188 11.4444 14.0129 12.5546C13.3069 13.6647 12.3381 14.5837 11.1922 15.23C10.0463 15.8763 8.75865 16.23 7.44338 16.2598C6.12811 16.2897 4.82579 15.9946 3.65177 15.4009C2.47775 14.8072 1.46827 13.9331 0.712757 12.8561L1.94462 11.9919C2.55803 12.8664 3.37764 13.5761 4.33083 14.0581C5.28403 14.5402 6.3414 14.7797 7.40928 14.7555C8.47716 14.7313 9.52259 14.4441 10.453 13.9194C11.3833 13.3946 12.1699 12.6485 12.7431 11.7472C13.3163 10.8458 13.6583 9.817 13.7388 8.75189C13.8194 7.68678 13.6361 6.61823 13.2051 5.6409C12.774 4.66357 12.1086 3.80763 11.2678 3.14888C10.427 2.49014 9.43663 2.04893 8.38454 1.86434L8.64458 0.382259Z" stroke="#BB0937" stroke-width="2" mask="url(#path-1-inside-1)"/>
</svg>
