<svg width="136" height="136" viewBox="0 0 136 136" fill="none" xmlns="http://www.w3.org/2000/svg">
<path d="M120.078 104.219H111.016V88.3591C111.016 87.7582 110.777 87.182 110.352 86.7571C109.927 86.3322 109.351 86.0935 108.75 86.0935H90.6251C90.0242 86.0935 89.448 86.3322 89.0231 86.7571C88.5982 87.182 88.3595 87.7582 88.3595 88.3591V104.219H79.297V88.3591C79.297 87.7582 79.0583 87.182 78.6334 86.7571C78.2085 86.3322 77.6323 86.0935 77.0314 86.0935H58.9064C58.3055 86.0935 57.7292 86.3322 57.3043 86.7571C56.8794 87.182 56.6407 87.7582 56.6407 88.3591V104.219H45.3126V88.3591C45.3126 87.7582 45.0739 87.182 44.649 86.7571C44.2242 86.3322 43.6479 86.0935 43.047 86.0935H24.922C24.3211 86.0935 23.7448 86.3322 23.32 86.7571C22.8951 87.182 22.6564 87.7582 22.6564 88.3591V104.219H15.8595C11.6533 104.219 7.61943 105.889 4.64522 108.864C1.67102 111.838 0.00012207 115.872 0.00012207 120.078C0.00012207 124.284 1.67102 128.318 4.64522 131.292C7.61943 134.266 11.6533 135.937 15.8595 135.937H120.078C124.284 135.937 128.318 134.266 131.293 131.292C134.267 128.318 135.938 124.284 135.938 120.078C135.938 115.872 134.267 111.838 131.293 108.864C128.318 105.889 124.284 104.219 120.078 104.219ZM92.8907 90.6248H97.422V95.156H101.953V90.6248H106.484V104.219H92.8907V90.6248ZM61.172 90.6248H65.7032V95.156H70.2345V90.6248H74.7657V104.219H61.172V90.6248ZM27.1876 90.6248H31.7189V95.156H36.2501V90.6248H40.7814V104.219H27.1876V90.6248ZM120.078 131.406H15.8595C12.8551 131.406 9.97374 130.213 7.8493 128.088C5.72487 125.964 4.53137 123.082 4.53137 120.078C4.53137 117.073 5.72487 114.192 7.8493 112.068C9.97374 109.943 12.8551 108.75 15.8595 108.75H120.078C123.083 108.75 125.964 109.943 128.088 112.068C130.213 114.192 131.406 117.073 131.406 120.078C131.406 123.082 130.213 125.964 128.088 128.088C125.964 130.213 123.083 131.406 120.078 131.406Z" fill="#BB0937"/>
<path d="M22.6564 113.281C21.3121 113.281 19.998 113.68 18.8802 114.426C17.7625 115.173 16.8913 116.235 16.3769 117.477C15.8624 118.719 15.7278 120.085 15.9901 121.404C16.2524 122.722 16.8997 123.933 17.8503 124.884C18.8008 125.835 20.0119 126.482 21.3304 126.744C22.6488 127.006 24.0155 126.872 25.2574 126.357C26.4994 125.843 27.5609 124.972 28.3078 123.854C29.0546 122.736 29.4532 121.422 29.4532 120.078C29.4532 118.275 28.7372 116.546 27.4625 115.272C26.1878 113.997 24.459 113.281 22.6564 113.281ZM22.6564 122.344C22.2083 122.344 21.7702 122.211 21.3977 121.962C21.0251 121.713 20.7347 121.359 20.5632 120.945C20.3917 120.531 20.3469 120.075 20.4343 119.636C20.5217 119.196 20.7375 118.793 21.0543 118.476C21.3712 118.159 21.7749 117.943 22.2144 117.856C22.6539 117.768 23.1094 117.813 23.5234 117.985C23.9374 118.156 24.2912 118.447 24.5402 118.819C24.7891 119.192 24.922 119.63 24.922 120.078C24.922 120.679 24.6833 121.255 24.2584 121.68C23.8335 122.105 23.2573 122.344 22.6564 122.344Z" fill="#BB0937"/>
<path d="M45.3126 113.281C43.9683 113.281 42.6542 113.68 41.5365 114.426C40.4187 115.173 39.5476 116.235 39.0331 117.477C38.5187 118.719 38.3841 120.085 38.6464 121.404C38.9086 122.722 39.5559 123.933 40.5065 124.884C41.4571 125.835 42.6682 126.482 43.9866 126.744C45.3051 127.006 46.6717 126.872 47.9137 126.357C49.1556 125.843 50.2172 124.972 50.964 123.854C51.7109 122.736 52.1095 121.422 52.1095 120.078C52.1095 118.275 51.3934 116.546 50.1187 115.272C48.8441 113.997 47.1153 113.281 45.3126 113.281ZM45.3126 122.344C44.8645 122.344 44.4265 122.211 44.0539 121.962C43.6813 121.713 43.3909 121.359 43.2195 120.945C43.048 120.531 43.0031 120.075 43.0905 119.636C43.178 119.196 43.3937 118.793 43.7106 118.476C44.0274 118.159 44.4311 117.943 44.8706 117.856C45.3101 117.768 45.7657 117.813 46.1796 117.985C46.5936 118.156 46.9475 118.447 47.1964 118.819C47.4454 119.192 47.5782 119.63 47.5782 120.078C47.5782 120.679 47.3396 121.255 46.9147 121.68C46.4898 122.105 45.9135 122.344 45.3126 122.344Z" fill="#BB0937"/>
<path d="M67.9689 113.281C66.6246 113.281 65.3105 113.68 64.1927 114.426C63.075 115.173 62.2038 116.235 61.6894 117.477C61.1749 118.719 61.0403 120.085 61.3026 121.404C61.5649 122.722 62.2122 123.933 63.1628 124.884C64.1133 125.835 65.3244 126.482 66.6429 126.744C67.9613 127.006 69.328 126.872 70.5699 126.357C71.8119 125.843 72.8734 124.972 73.6203 123.854C74.3671 122.736 74.7657 121.422 74.7657 120.078C74.7657 118.275 74.0496 116.546 72.775 115.272C71.5003 113.997 69.7715 113.281 67.9689 113.281ZM67.9689 122.344C67.5208 122.344 67.0827 122.211 66.7102 121.962C66.3376 121.713 66.0472 121.359 65.8757 120.945C65.7042 120.531 65.6594 120.075 65.7468 119.636C65.8342 119.196 66.05 118.793 66.3668 118.476C66.6837 118.159 67.0874 117.943 67.5269 117.856C67.9664 117.768 68.4219 117.813 68.8359 117.985C69.2499 118.156 69.6037 118.447 69.8527 118.819C70.1016 119.192 70.2345 119.63 70.2345 120.078C70.2345 120.679 69.9958 121.255 69.5709 121.68C69.146 122.105 68.5698 122.344 67.9689 122.344Z" fill="#BB0937"/>
<path d="M90.6251 113.281C89.2808 113.281 87.9667 113.68 86.849 114.426C85.7312 115.173 84.8601 116.235 84.3456 117.477C83.8312 118.719 83.6966 120.085 83.9588 121.404C84.2211 122.722 84.8685 123.933 85.819 124.884C86.7696 125.835 87.9807 126.482 89.2991 126.744C90.6176 127.006 91.9842 126.872 93.2262 126.357C94.4681 125.843 95.5297 124.972 96.2765 123.854C97.0234 122.736 97.422 121.422 97.422 120.078C97.422 118.275 96.7059 116.546 95.4312 115.272C94.1566 113.997 92.4278 113.281 90.6251 113.281ZM90.6251 122.344C90.177 122.344 89.739 122.211 89.3664 121.962C88.9938 121.713 88.7034 121.359 88.532 120.945C88.3605 120.531 88.3156 120.075 88.403 119.636C88.4905 119.196 88.7062 118.793 89.0231 118.476C89.3399 118.159 89.7436 117.943 90.1831 117.856C90.6226 117.768 91.0782 117.813 91.4921 117.985C91.9061 118.156 92.26 118.447 92.5089 118.819C92.7579 119.192 92.8907 119.63 92.8907 120.078C92.8907 120.679 92.6521 121.255 92.2272 121.68C91.8023 122.105 91.226 122.344 90.6251 122.344Z" fill="#BB0937"/>
<path d="M113.281 113.281C111.937 113.281 110.623 113.68 109.505 114.426C108.387 115.173 107.516 116.235 107.002 117.477C106.487 118.719 106.353 120.085 106.615 121.404C106.877 122.722 107.525 123.933 108.475 124.884C109.426 125.835 110.637 126.482 111.955 126.744C113.274 127.006 114.64 126.872 115.882 126.357C117.124 125.843 118.186 124.972 118.933 123.854C119.68 122.736 120.078 121.422 120.078 120.078C120.078 118.275 119.362 116.546 118.087 115.272C116.813 113.997 115.084 113.281 113.281 113.281ZM113.281 122.344C112.833 122.344 112.395 122.211 112.023 121.962C111.65 121.713 111.36 121.359 111.188 120.945C111.017 120.531 110.972 120.075 111.059 119.636C111.147 119.196 111.362 118.793 111.679 118.476C111.996 118.159 112.4 117.943 112.839 117.856C113.279 117.768 113.734 117.813 114.148 117.985C114.562 118.156 114.916 118.447 115.165 118.819C115.414 119.192 115.547 119.63 115.547 120.078C115.547 120.679 115.308 121.255 114.883 121.68C114.459 122.105 113.882 122.344 113.281 122.344Z" fill="#BB0937"/>
<path d="M90.6251 27.1873V18.1248C90.6251 17.6197 90.4563 17.1291 90.1456 16.7309C89.8349 16.3328 89.4 16.0498 88.91 15.9271L85.9806 15.1953L87.5348 12.6057C87.7943 12.1724 87.9015 11.6649 87.8395 11.1637C87.7775 10.6625 87.5499 10.1964 87.1927 9.83937L80.7855 3.43218C80.4283 3.07447 79.9618 2.84648 79.4601 2.78449C78.9584 2.72249 78.4504 2.83006 78.0169 3.09007L75.4296 4.64429L74.6978 1.7171C74.5755 1.22675 74.2927 0.79136 73.8945 0.48018C73.4963 0.169001 73.0055 -0.000104526 72.5001 -0.000244141H63.4376C62.9322 -0.000104526 62.4414 0.169001 62.0432 0.48018C61.645 0.79136 61.3623 1.22675 61.24 1.7171L60.5082 4.64429L57.9208 3.09007C57.4873 2.83006 56.9793 2.72249 56.4776 2.78449C55.9759 2.84648 55.5094 3.07447 55.1522 3.43218L48.745 9.83937C48.3879 10.1964 48.1602 10.6625 48.0982 11.1637C48.0362 11.6649 48.1435 12.1724 48.4029 12.6057L49.9572 15.1953L47.0277 15.9271C46.5378 16.0498 46.1029 16.3328 45.7922 16.7309C45.4814 17.1291 45.3126 17.6197 45.3126 18.1248V27.1873C45.3126 27.6923 45.4814 28.1829 45.7922 28.5811C46.1029 28.9793 46.5378 29.2622 47.0277 29.3849L49.9549 30.1167L48.4029 32.7041C48.1435 33.1373 48.0362 33.6449 48.0982 34.1461C48.1602 34.6472 48.3879 35.1134 48.745 35.4704L55.1522 41.8798C55.5094 42.2375 55.9759 42.4655 56.4776 42.5275C56.9793 42.5895 57.4873 42.482 57.9208 42.2219L60.5082 40.6677L61.24 43.5949C61.3623 44.0853 61.645 44.5207 62.0432 44.8318C62.4414 45.143 62.9322 45.3121 63.4376 45.3123H65.7032V50.2604C64.3826 50.7273 63.2385 51.5908 62.4274 52.7329C61.6163 53.8749 61.1778 55.2396 61.172 56.6404V60.4919L57.0214 66.7179C56.8004 67.0496 56.6708 67.4337 56.6458 67.8315C56.6207 68.2293 56.701 68.6267 56.8786 68.9835L61.4099 78.046C61.6785 78.5838 62.1497 78.9929 62.7199 79.1832C63.2901 79.3736 63.9126 79.3296 64.4504 79.061C64.9881 78.7924 65.3972 78.3212 65.5876 77.751C65.7779 77.1808 65.734 76.5583 65.4654 76.0205L61.5209 68.1339L64.6497 63.4373H71.288L74.4168 68.1316L70.4611 76.0183C70.1925 76.5561 70.1485 77.1785 70.3389 77.7487C70.5292 78.3189 70.9383 78.7901 71.4761 79.0587C72.0138 79.3273 72.6363 79.3713 73.2065 79.1809C73.7767 78.9906 74.2479 78.5815 74.5165 78.0437L79.0478 68.9812C79.2254 68.6244 79.3057 68.2271 79.2806 67.8293C79.2556 67.4315 79.126 67.0473 78.905 66.7156L74.7657 60.4919V56.6404C74.7599 55.2396 74.3215 53.8749 73.5104 52.7329C72.6993 51.5908 71.5551 50.7273 70.2345 50.2604V45.3123H72.5001C73.0055 45.3121 73.4963 45.143 73.8945 44.8318C74.2927 44.5207 74.5755 44.0853 74.6978 43.5949L75.4296 40.6677L78.0169 42.2219C78.4504 42.482 78.9584 42.5895 79.4601 42.5275C79.9618 42.4655 80.4283 42.2375 80.7855 41.8798L87.1927 35.4704C87.5499 35.1134 87.7775 34.6472 87.8395 34.1461C87.9015 33.6449 87.7943 33.1373 87.5348 32.7041L85.9829 30.1167L88.91 29.3849C89.4 29.2622 89.8349 28.9793 90.1456 28.5811C90.4563 28.1829 90.6251 27.6923 90.6251 27.1873ZM70.2345 58.906H65.7032V56.6404C65.7032 56.0395 65.9419 55.4632 66.3668 55.0383C66.7917 54.6135 67.368 54.3748 67.9689 54.3748C68.5698 54.3748 69.146 54.6135 69.5709 55.0383C69.9958 55.4632 70.2345 56.0395 70.2345 56.6404V58.906ZM86.0939 25.4178L81.9161 26.4645C81.5729 26.5504 81.2546 26.7155 80.9867 26.9465C80.7188 27.1776 80.5086 27.4681 80.3732 27.7949C80.2378 28.1218 80.1807 28.4758 80.2067 28.8286C80.2327 29.1814 80.3409 29.5232 80.5227 29.8267L82.7385 33.5174L78.8439 37.4256L75.1509 35.2098C74.8474 35.0276 74.5053 34.919 74.1522 34.8928C73.7991 34.8666 73.4448 34.9235 73.1177 35.059C72.7905 35.1944 72.4997 35.4047 72.2685 35.6729C72.0374 35.941 71.8722 36.2597 71.7865 36.6032L70.7307 40.781H65.2071L64.1626 36.6032C64.0768 36.2597 63.9117 35.941 63.6805 35.6729C63.4493 35.4047 63.1585 35.1944 62.8314 35.059C62.5043 34.9235 62.15 34.8666 61.7969 34.8928C61.4438 34.919 61.1017 35.0276 60.7982 35.2098L57.1052 37.4256L53.1993 33.5174L55.415 29.8267C55.5969 29.5232 55.7051 29.1814 55.731 28.8286C55.757 28.4758 55.7 28.1218 55.5645 27.7949C55.4291 27.4681 55.219 27.1776 54.9511 26.9465C54.6832 26.7155 54.3649 26.5504 54.0217 26.4645L49.8439 25.4178V19.8942L54.0217 18.8475C54.3649 18.7616 54.6832 18.5965 54.9511 18.3655C55.219 18.1344 55.4291 17.8439 55.5645 17.5171C55.7 17.1902 55.757 16.8363 55.731 16.4834C55.7051 16.1306 55.5969 15.7888 55.415 15.4853L53.1993 11.7923L57.1052 7.88413L60.7982 10.1022C61.1017 10.2845 61.4438 10.393 61.7969 10.4192C62.15 10.4454 62.5043 10.3885 62.8314 10.2531C63.1585 10.1176 63.4493 9.90732 63.6805 9.63914C63.9117 9.37096 64.0768 9.05233 64.1626 8.70882L65.2071 4.53101H70.7307L71.7751 8.70882C71.8609 9.05233 72.026 9.37096 72.2572 9.63914C72.4884 9.90732 72.7792 10.1176 73.1063 10.2531C73.4335 10.3885 73.7878 10.4454 74.1409 10.4192C74.494 10.393 74.836 10.2845 75.1396 10.1022L78.8439 7.88413L82.7498 11.7923L80.534 15.4853C80.3522 15.7888 80.244 16.1306 80.218 16.4834C80.1921 16.8363 80.2491 17.1902 80.3845 17.5171C80.52 17.8439 80.7301 18.1344 80.998 18.3655C81.2659 18.5965 81.5842 18.7616 81.9274 18.8475L86.0939 19.8942V25.4178Z" fill="#BB0937"/>
<path d="M67.9689 13.5935C66.1765 13.5935 64.4243 14.125 62.934 15.1208C61.4437 16.1166 60.2821 17.532 59.5962 19.1879C58.9103 20.8439 58.7308 22.6661 59.0805 24.424C59.4302 26.182 60.2933 27.7967 61.5607 29.0642C62.8281 30.3316 64.4429 31.1947 66.2009 31.5444C67.9588 31.8941 69.781 31.7146 71.4369 31.0287C73.0929 30.3427 74.5083 29.1812 75.5041 27.6909C76.4999 26.2005 77.0314 24.4484 77.0314 22.656C77.0314 20.2525 76.0766 17.9474 74.377 16.2479C72.6775 14.5483 70.3724 13.5935 67.9689 13.5935ZM67.9689 27.1873C67.0727 27.1873 66.1966 26.9215 65.4514 26.4236C64.7063 25.9257 64.1255 25.218 63.7825 24.39C63.4396 23.5621 63.3499 22.651 63.5247 21.772C63.6995 20.893 64.1311 20.0856 64.7648 19.4519C65.3985 18.8182 66.2059 18.3867 67.0849 18.2118C67.9638 18.037 68.8749 18.1267 69.7029 18.4697C70.5309 18.8126 71.2386 19.3934 71.7365 20.1386C72.2344 20.8837 72.5001 21.7598 72.5001 22.656C72.5001 23.8578 72.0227 25.0103 71.173 25.8601C70.3232 26.7099 69.1706 27.1873 67.9689 27.1873Z" fill="#BB0937"/>
<path d="M6.797 29.4529H18.1251V43.4635C16.8045 43.9304 15.6603 44.794 14.8492 45.936C14.0381 47.078 13.5997 48.4428 13.5939 49.8435V53.6951L9.44325 59.9142C9.22227 60.2459 9.09271 60.6301 9.06765 61.0279C9.04259 61.4257 9.12291 61.823 9.30051 62.1798L13.8318 71.2423C14.1004 71.7801 14.5716 72.1892 15.1418 72.3795C15.712 72.5699 16.3344 72.5259 16.8722 72.2573C17.41 71.9888 17.8191 71.5175 18.0094 70.9473C18.1998 70.3771 18.1558 69.7547 17.8872 69.2169L13.9428 61.3348L17.0716 56.6404H23.7099L26.8387 61.3348L22.8943 69.2214C22.6257 69.7592 22.5817 70.3817 22.7721 70.9519C22.9624 71.522 23.3715 71.9933 23.9093 72.2619C24.4471 72.5305 25.0695 72.5744 25.6397 72.3841C26.2099 72.1937 26.6811 71.7847 26.9497 71.2469L31.481 62.1844C31.6586 61.8275 31.7389 61.4302 31.7138 61.0324C31.6888 60.6346 31.5592 60.2505 31.3382 59.9187L27.1876 53.6951V49.8435C27.1818 48.4428 26.7434 47.078 25.9323 45.936C25.1212 44.794 23.977 43.9304 22.6564 43.4635V29.4529H40.4891V24.9216H6.797C6.19612 24.9216 5.61985 24.6829 5.19496 24.258C4.77007 23.8332 4.53137 23.2569 4.53137 22.656C4.53137 22.0551 4.77007 21.4789 5.19496 21.054C5.61985 20.6291 6.19612 20.3904 6.797 20.3904H40.7089V15.8591H6.797C4.99435 15.8591 3.26554 16.5752 1.99088 17.8499C0.71622 19.1246 0.00012207 20.8534 0.00012207 22.656C0.00012207 24.4586 0.71622 26.1875 1.99088 27.4621C3.26554 28.7368 4.99435 29.4529 6.797 29.4529ZM22.6564 52.1091H18.1251V49.8435C18.1251 49.2426 18.3638 48.6664 18.7887 48.2415C19.2136 47.8166 19.7899 47.5779 20.3907 47.5779C20.9916 47.5779 21.5679 47.8166 21.9928 48.2415C22.4177 48.6664 22.6564 49.2426 22.6564 49.8435V52.1091Z" fill="#BB0937"/>
<path d="M129.141 15.8591H95.0839V20.3904H129.141C129.742 20.3904 130.318 20.6291 130.743 21.054C131.168 21.4789 131.406 22.0551 131.406 22.656C131.406 23.2569 131.168 23.8332 130.743 24.258C130.318 24.6829 129.742 24.9216 129.141 24.9216H95.1564V29.4529H113.281V43.4635C111.961 43.9304 110.817 44.794 110.006 45.936C109.194 47.078 108.756 48.4428 108.75 49.8435V53.6951L104.6 59.921C104.379 60.2527 104.249 60.6369 104.224 61.0347C104.199 61.4324 104.279 61.8298 104.457 62.1866L108.988 71.2491C109.257 71.7869 109.728 72.196 110.298 72.3863C110.868 72.5767 111.491 72.5327 112.029 72.2641C112.566 71.9955 112.975 71.5243 113.166 70.9541C113.356 70.3839 113.312 69.7615 113.044 69.2237L109.099 61.337L112.228 56.6404H118.866L121.995 61.3348L118.051 69.2214C117.782 69.7592 117.738 70.3816 117.928 70.9518C118.119 71.522 118.528 71.9933 119.066 72.2619C119.603 72.5305 120.226 72.5744 120.796 72.3841C121.366 72.1937 121.837 71.7846 122.106 71.2469L126.637 62.1844C126.815 61.8275 126.895 61.4302 126.87 61.0324C126.845 60.6346 126.716 60.2505 126.495 59.9187L122.344 53.6951V49.8435C122.338 48.4428 121.9 47.078 121.089 45.936C120.277 44.794 119.133 43.9304 117.813 43.4635V29.4529H129.141C130.943 29.4529 132.672 28.7368 133.947 27.4621C135.222 26.1875 135.938 24.4586 135.938 22.656C135.938 20.8534 135.222 19.1245 133.947 17.8499C132.672 16.5752 130.943 15.8591 129.141 15.8591ZM117.813 52.1091H113.281V49.8435C113.281 49.2426 113.52 48.6664 113.945 48.2415C114.37 47.8166 114.946 47.5779 115.547 47.5779C116.148 47.5779 116.724 47.8166 117.149 48.2415C117.574 48.6664 117.813 49.2426 117.813 49.8435V52.1091Z" fill="#BB0937"/>
</svg>
