<svg width="89" height="145" viewBox="0 0 89 145" fill="none" xmlns="http://www.w3.org/2000/svg">
<path d="M80.3813 27.4769C78.5605 25.6561 76.7397 24.8285 75.581 24.1664C73.5947 23.1733 73.0982 22.8422 73.0982 19.6972V16.7178C75.0845 16.5523 76.7397 14.897 76.7397 12.7452V3.97236C76.7397 1.82053 74.9189 -0.000244141 72.7671 -0.000244141H55.8836C53.7317 -0.000244141 51.911 1.82053 51.911 3.97236V12.9107C51.911 14.7315 53.2352 16.3867 54.8904 16.7178V19.0351C54.8904 22.5112 54.2283 22.8422 52.0765 24.0009C50.7523 24.663 49.2626 25.4906 47.4418 27.1459C42.145 31.7806 39.1655 38.5671 39.1655 45.5192V134.903C39.1655 135.068 39 135.234 39 135.565C39.1655 140.862 43.3037 145 48.4349 145C51.5799 145 54.3938 143.345 56.0491 141.027C57.7043 143.51 60.5183 145 63.6632 145C66.8082 145 69.6221 143.345 71.2774 141.027C72.9326 143.51 75.7466 145 78.8915 145C84.0228 145 88.1609 140.862 88.1609 135.73V45.5192C88.1609 38.7326 85.347 32.1116 80.3813 27.4769ZM69.9532 3.31026H72.9326C73.2637 3.31026 73.5947 3.64131 73.5947 3.97236V12.9107C73.5947 13.2418 73.2637 13.5728 72.9326 13.5728H69.9532V3.31026ZM62.339 3.31026H66.6427V13.5728H62.339V3.31026ZM55.2215 3.97236C55.2215 3.64131 55.5525 3.31026 55.8836 3.31026H59.0285V13.5728H55.8836C55.5525 13.5728 55.2215 13.2418 55.2215 12.9107V3.97236ZM42.6416 45.6847C42.6416 39.5603 45.1244 33.7669 49.7591 29.7943C51.2489 28.4701 52.5731 27.6425 53.7317 27.1459C56.5457 25.6561 58.2009 24.4975 58.2009 19.2007V17.0488H69.7877V20.0283C69.7877 24.994 71.4429 26.1527 74.0913 27.4769C75.25 28.139 76.5742 28.8011 78.2294 30.1253C82.5331 34.0979 85.016 39.7258 85.016 45.6847V46.6778H42.6416V45.6847ZM42.6416 49.9883H85.1815V111.729H42.6416V49.9883ZM85.347 135.565C85.1815 139.041 82.3676 141.689 79.0571 141.689C75.7466 141.689 73.0982 139.041 73.0982 135.73C73.0982 134.737 72.4361 134.075 71.4429 134.075C70.4498 134.075 69.7877 134.737 69.7877 135.73C69.7877 139.041 67.1393 141.689 63.8288 141.689C60.5183 141.689 57.8699 139.041 57.8699 135.73C57.8699 134.737 57.2078 134.075 56.2146 134.075C55.2215 134.075 54.5594 134.737 54.5594 135.73C54.5594 139.041 51.911 141.689 48.6005 141.689C45.4555 141.689 42.9726 139.372 42.6416 136.227C42.6416 136.061 42.8071 135.896 42.8071 135.73V115.04H85.347V135.565Z" fill="#BB0937"/>
<path d="M35.3881 33.4975C33.831 31.9404 32.274 31.2326 31.2831 30.6664C29.5845 29.8171 29.1598 29.534 29.1598 26.8445V24.2966C30.8584 24.155 32.274 22.7395 32.274 20.8993V13.397C32.274 11.5568 30.7169 9.99976 28.8767 9.99976H14.4384C12.5982 9.99976 11.0411 11.5568 11.0411 13.397V21.0409C11.0411 22.5979 12.1735 24.0135 13.589 24.2966V26.2783C13.589 29.2509 13.0228 29.534 11.1826 30.5249C10.0502 31.0911 8.77625 31.7988 7.21918 33.2144C2.6895 37.1778 0.141551 42.9815 0.141551 48.9267V125.365C0.141551 125.507 0 125.648 0 125.931C0.141552 130.461 3.68037 134 8.06849 134C10.758 134 13.1644 132.584 14.5799 130.603C15.9954 132.726 18.4018 134 21.0913 134C23.7808 134 26.1872 132.584 27.6027 130.603C29.0183 132.726 31.4247 134 34.1142 134C38.5023 134 42.0411 130.461 42.0411 126.073V48.9267C42.0411 43.123 39.6347 37.4609 35.3881 33.4975ZM26.4703 12.8308H29.0183C29.3014 12.8308 29.5845 13.1139 29.5845 13.397V21.0409C29.5845 21.324 29.3014 21.6071 29.0183 21.6071H26.4703V12.8308ZM19.9589 12.8308H23.6393V21.6071H19.9589V12.8308ZM13.8721 13.397C13.8721 13.1139 14.1552 12.8308 14.4384 12.8308H17.1278V21.6071H14.4384C14.1552 21.6071 13.8721 21.324 13.8721 21.0409V13.397ZM3.11416 49.0682C3.11416 43.8308 5.23744 38.8765 9.20091 35.4792C10.4749 34.3468 11.6073 33.639 12.5982 33.2144C15.0046 31.9404 16.4201 30.9495 16.4201 26.4198V24.5797H26.3288V27.1276C26.3288 31.3742 27.7443 32.3651 30.0091 33.4975C31 34.0637 32.1324 34.6299 33.5479 35.7623C37.2283 39.1596 39.3516 43.9724 39.3516 49.0682V49.9176H3.11416V49.0682ZM3.11416 52.7486H39.4931V105.548H3.11416V52.7486ZM39.6347 125.931C39.4931 128.904 37.0868 131.169 34.2557 131.169C31.4247 131.169 29.1598 128.904 29.1598 126.073C29.1598 125.224 28.5936 124.657 27.7443 124.657C26.895 124.657 26.3288 125.224 26.3288 126.073C26.3288 128.904 24.0639 131.169 21.2329 131.169C18.4018 131.169 16.137 128.904 16.137 126.073C16.137 125.224 15.5708 124.657 14.7215 124.657C13.8721 124.657 13.3059 125.224 13.3059 126.073C13.3059 128.904 11.0411 131.169 8.21004 131.169C5.52055 131.169 3.39726 129.187 3.11416 126.497C3.11416 126.356 3.25571 126.214 3.25571 126.073V108.379H39.6347V125.931Z" fill="#BB0937"/>
</svg>
